<svg xmlns="http://www.w3.org/2000/svg" xmlns:xlink="http://www.w3.org/1999/xlink" version="1.1" x="0px" y="0px" viewBox="0 0 100 125" style="enable-background:new 0 0 100 100;" xml:space="preserve"><path d="M44.28,24.89c0.69,0,1.24-0.56,1.24-1.24v-1.49h3.24v1.49c0,0.69,0.56,1.24,1.24,1.24c0.69,0,1.24-0.56,1.24-1.24v-1.49  h3.24v1.49c0,0.69,0.56,1.24,1.24,1.24c0.69,0,1.24-0.56,1.24-1.24v-5.47c0-0.69-0.56-1.24-1.24-1.24c-0.69,0-1.24,0.56-1.24,1.24  v1.49h-3.24v-1.49c0-0.69-0.56-1.24-1.24-1.24c-0.69,0-1.24,0.56-1.24,1.24v1.49h-3.24v-1.49c0-0.69-0.56-1.24-1.24-1.24  c-0.69,0-1.24,0.56-1.24,1.24v5.47C43.04,24.33,43.6,24.89,44.28,24.89z"/><path d="M50,90c16.98,0,30.8-13.82,30.8-30.8c0-12.34-7.49-23.51-18.77-28.32c1.19-2.05,1.89-4.43,1.89-6.96  c0-1.1-0.14-2.17-0.39-3.2c0-0.01-0.01-0.03-0.01-0.04C62.06,14.57,56.56,10,50,10c-6.56,0-12.06,4.57-13.52,10.68  c0,0.01-0.01,0.02-0.01,0.04c-0.24,1.03-0.39,2.1-0.39,3.2c0,2.54,0.69,4.91,1.89,6.96C26.69,35.69,19.2,46.86,19.2,59.2  C19.2,76.18,33.02,90,50,90z M50,12.49c5.27,0,9.67,3.6,10.99,8.46c-1.36,4.96-5.81,8.4-10.99,8.4s-9.63-3.44-10.99-8.4  C40.33,16.09,44.73,12.49,50,12.49z M50,31.83c4.57,0,8.66-2.22,11.21-5.73c-1.02,5.26-5.65,9.25-11.21,9.25  c-5.56,0-10.19-3.99-11.21-9.25C41.34,29.6,45.43,31.83,50,31.83z M60.74,62h-5.37l0.45-5.58h4.88c0.01,0,0.03,0.01,0.04,0.01  c0.69,0,1.24-0.56,1.24-1.24v-3.03c0-1.53,1.26-2.78,2.8-2.78c1.53,0,2.77,1.25,2.77,2.78v14.1c0,1.54-1.25,2.8-2.77,2.8  c-1.54,0-2.8-1.26-2.8-2.8v-3.01C61.98,62.55,61.43,62,60.74,62z M52.79,63.19c0,0.02-0.01,0.03-0.01,0.05v3.01  c0,1.54-1.25,2.8-2.78,2.8c-1.53,0-2.78-1.26-2.78-2.8v-3.01c0-0.04-0.02-0.07-0.02-0.11l-0.63-7.96c0,0,0,0,0,0c0,0,0,0,0,0  l-1.45-18.23c1.52,0.57,3.16,0.9,4.88,0.9c1.73,0,3.38-0.33,4.91-0.91l-2.13,26.22C52.78,63.16,52.79,63.17,52.79,63.19z   M39.26,56.42c0.02,0,0.03-0.01,0.04-0.01h4.87L44.62,62h-5.36c-0.69,0-1.24,0.56-1.24,1.24v3.01c0,1.54-1.26,2.8-2.8,2.8  c-1.53,0-2.77-1.26-2.77-2.8v-14.1c0-1.53,1.25-2.78,2.77-2.78c1.54,0,2.8,1.25,2.8,2.78v3.03C38.02,55.87,38.57,56.42,39.26,56.42z   M39.44,32.96c0.89,1.04,1.93,1.94,3.09,2.68l1.45,18.29H40.5v-1.78c0-2.9-2.37-5.26-5.29-5.26c-2.9,0-5.26,2.36-5.26,5.26v14.1  c0,2.91,2.36,5.29,5.26,5.29c2.92,0,5.29-2.37,5.29-5.29v-1.76h4.23v1.76c0,2.91,2.36,5.29,5.26,5.29c2.9,0,5.26-2.37,5.26-5.29  v-1.76h4.23v1.76c0,2.91,2.37,5.29,5.29,5.29c2.9,0,5.26-2.37,5.26-5.29v-14.1c0-2.9-2.36-5.26-5.26-5.26  c-2.92,0-5.29,2.36-5.29,5.26v1.78h-3.47l1.49-18.31c1.14-0.74,2.17-1.63,3.05-2.66c10.65,4.3,17.75,14.72,17.75,26.24  c0,15.61-12.7,28.32-28.31,28.32S21.69,74.81,21.69,59.2C21.69,47.68,28.79,37.26,39.44,32.96z"/><text x="0" y="115" fill="#000000" font-size="5px" font-weight="bold" font-family="'Helvetica Neue', Helvetica, Arial-Unicode, Arial, Sans-serif">Created by ainul muttaqin</text><text x="0" y="120" fill="#000000" font-size="5px" font-weight="bold" font-family="'Helvetica Neue', Helvetica, Arial-Unicode, Arial, Sans-serif">from the Noun Project</text></svg>